#!OML:ASF E:/inclinewalkrobotboard/Project1/Captureday1/Session1/subject1.ASF
:FULLY-SPECIFIED
:DEGREES
76
root 0 0 0 -1.1365106728533858 -2.8536039603594716 -0.8483007552887725
lowerback 10.958254314696411 0.5647502059562981 0.46240706766415457
upperback -1.1460677282624443 0.88191600601281 0.8982994696633928
thorax -7.334730488143979 0.40636153783732776 0.4362147769657554
lowerneck -13.329676996671214 -1.3777575318617266 0.25952506943634085
upperneck 19.043873259960066 -1.360607749694291 -2.411822823907398
head 8.198433274952219 -0.7900518735987212 -1.0270777320204685
rclavicle -4.547175376105499E-16 -2.4884354894436435E-16
rhumerus -11.349925811596359 -6.488716758661601 -67.01147613602635
rradius 43.35550242074556
rwrist 12.216856131062631
rhand -23.74555604517389 -6.229697006630703
rfingers 7.125020000000132
rthumb 2.95599755781109 -36.37867015275221
lclavicle -9.442378359587172E-16 -8.216259479831308E-16
lhumerus -11.026675873277203 -4.438925657205404 67.72516313927426
lradius 44.76385518895552
lwrist -5.830750250039591
lhand -33.78312828936721 -13.242392031940167
lfingers 7.125020000000124
lthumb -7.057834002964085 15.832759237853292
rfemur -31.39627199679271 0.6652733677688785 17.720906654113286
rtibia 57.033348028056466
rfoot 3.339013533221257 -7.599735771319303
rtoes 5.099499764572333
lfemur 16.99054886626014 -3.8162848559839313 -31.057269760811447
ltibia 19.11893398586561
lfoot -12.760472468128295 -5.31058209144676
ltoes -5.261224555990472
77
root 0 0 0 -1.1349488048415832 -2.8537804842704877 -0.846891979424664
lowerback 10.958711286778964 0.5647390131234656 0.4615456586567165
upperback -1.147657591838714 0.8818746029906991 0.8976222794716028
thorax -7.337134232855038 0.4063789141054184 0.4356822612354787
lowerneck -13.325349612569404 -1.3761158614234983 0.2619890322835195
upperneck 19.043247895258002 -1.358523761697982 -2.415402534873365
head 8.197659601485764 -0.7890575681175 -1.0283744362308886
rclavicle -4.551796229042486E-16 -2.5382557808091513E-16
rhumerus -11.273489755836774 -6.439019788747084 -66.96379843820407
rradius 43.4279541581115
rwrist 12.253536821228082
rhand -23.771079389686392 -6.355608887611494
rfingers 7.125020000000132
rthumb 2.9301648690035687 -36.504002946110695
lclavicle -9.377061154462558E-16 -8.24320768297917E-16
lhumerus -10.813727922372786 -4.49113321509122 67.57323896039782
lradius 44.933602212616215
lwrist -5.946349125287779
lhand -33.85682175369272 -13.634613638834534
lfingers 7.125020000000123
lthumb -7.128012052527827 15.446877329750858
rfemur -32.43087858753313 1.198250003462493 17.58722368343826
rtibia 52.68362723742237
rfoot 2.073556664716273 -8.30456044958008
rtoes 4.0400203305183275
lfemur 18.151259154810965 -3.4887134370278146 -31.20097848342014
ltibia 21.6739304618387
lfoot -11.833609877952924 -6.586253971892
ltoes -5.988043063672987
78
root 0 0 0 -1.1357603628663824 -2.8533853435352334 -0.8479952702515487
lowerback 10.958282598725253 0.5644870049398368 0.4615162458136205
upperback -1.1462918617316196 0.8817186533971492 0.8982852160869035
thorax -7.33564566481804 0.4062846547400626 0.436243416674514
lowerneck -13.327674516087702 -1.3772830664791864 0.2605010399224484
upperneck 19.042961712481056 -1.360638588837265 -2.413429660267845
head 8.198103537564867 -0.7898707383768606 -1.027621387001055
rclavicle -4.558534469998611E-16 -2.5681463151393987E-16
rhumerus -11.235138891908981 -6.414629191191567 -66.93978674844612
rradius 43.46422288921801
rwrist 12.272094282229613
rhand -23.78382252731452 -6.418821144147735
rfingers 7.125020000000132
rthumb 2.917320774448372 -36.567638579930346
lclavicle -9.324098410581235E-16 -8.259448337173795E-16
lhumerus -10.670461051016847 -4.5264587682030895 67.47110691195634
lradius 45.04760330385302
lwrist -6.023794299191602
lhand -33.906589404218415 -13.899518056919584
lfingers 7.125020000000122
lthumb -7.175305850535874 15.187951003537377
rfemur -32.586660633489956 1.876581760721457 17.83751555644031
rtibia 47.93199455599536
rfoot 0.5261514783165211 -8.871929786407417
rtoes 3.0658366204625374
lfemur 18.95895484967113 -3.1703938794282784 -31.218811092745522
ltibia 24.199387207967455
lfoot -10.854932537205606 -7.768992247272712
ltoes -6.6070337015288825
79
root 0 0 0 -1.1389737627042773 -2.8524075902083506 -0.8516490426578853
lowerback 10.956962959112479 0.5640009407913822 0.4623719127999423
upperback -1.1419311833859878 0.8814511397446063 0.9002913103596707
thorax -7.330193002211676 0.4060792888780943 0.43790851406321185
lowerneck -13.336789035207282 -1.3813043460945695 0.254997731508907
upperneck 19.043052369086567 -1.3669882745516349 -2.405794839817818
head 8.19978706219252 -0.7925206341001405 -1.0247765392937596
rclavicle -4.565872770359875E-16 -2.576388571041941E-16
rhumerus -11.238495744617161 -6.417800486186494 -66.94167215447943
rradius 43.460888914551596
rwrist 12.270783399144399
rhand -23.782589641634676 -6.413435847995659
rfingers 7.125020000000132
rthumb 2.9186568334680265 -36.56368018463819
lclavicle -9.290290956750496E-16 -8.264089345965361E-16
lhumerus -10.61383263483764 -4.540704868506453 67.43096991738001
lradius 45.092506338438696
lwrist -6.053981862310353
lhand -33.92646330422444 -14.005725243196114
lfingers 7.125020000000122
lthumb -7.194043233451624 15.086566275756194
rfemur -31.62610055706476 2.7283899762620356 18.57463581417595
rtibia 42.7240785888198
rfoot -1.3808222044124214 -9.261086515195265
rtoes 2.196635426922594
lfemur 19.33627129568196 -2.8706065606486484 -31.085273592585956
ltibia 26.627497444107394
lfoot -9.836636674138894 -8.814550487379616
ltoes -7.091285729678123
80
root 0 0 0 -1.1485698012896137 -2.8497664190767646 -0.86222740638193
lowerback 10.953204675812982 0.5628131798271977 0.46554628508066
upperback -1.1293860173576826 0.8807930995719756 0.9059684862141882
thorax -7.314079238683269 0.4055488458411387 0.4425870656112588
lowerneck -13.364115903080709 -1.3930962901500004 0.23875445566104164
upperneck 19.043890446492963 -1.385016823966284 -2.3829452107337987
head 8.204795851682706 -0.8002029232275709 -1.0163067640854853
rclavicle -4.574537126506716E-16 -2.5411525686621484E-16
rhumerus -11.33589103643876 -6.483327422880837 -67.00180202836235
rradius 43.36812739999837
rwrist 12.224703565950453
rhand -23.74975572060984 -6.25331909663965
rfingers 7.125020000000132
rthumb 2.952087792937051 -36.407811778700896
lclavicle -9.30488463508992E-16 -8.247241323136071E-16
lhumerus -10.733132731042055 -4.512344092603307 67.51667310952081
lradius 44.99722568604665
lwrist -5.988067752577971
lhand -33.88571268451076 -13.791013859730553
lfingers 7.125020000000123
lthumb -7.1548603277568645 15.304885714793688
rfemur -27.143179394919294 4.429314160913805 21.001428351517138
rtibia 33.9572159536606
rfoot -5.19060333209299 -9.334233654308363
rtoes 1.211599761863632
lfemur 18.96884447524115 -2.4371068027004514 -30.507888868832236
ltibia 30.2782976843852
lfoot -8.092620990328768 -10.176748122186307
ltoes -7.5822703337609445
81
root 0 0 0 -1.1580970022403982 -2.847248093802021 -0.8725828454086885
lowerback 10.949575252398185 0.5617639130669231 0.4690116528120503
upperback -1.1171656477095737 0.8802572494707072 0.9114344599305093
thorax -7.298173782612691 0.4050478091050373 0.44712011224786274
lowerneck -13.391371383406133 -1.4046794109757865 0.2227421319425758
upperneck 19.04506805910033 -1.4025421966002396 -2.3601804873045946
head 8.209718163885396 -0.8077412607766288 -1.0078462159290904
rclavicle -4.584850420662287E-16 -2.4801859104488206E-16
rhumerus -11.463560550955812 -6.56839629272729 -67.08111258168388
rradius 43.2458646544262
rwrist 12.16391929393084
rhand -23.706656643155828 -6.043369145619769
rfingers 7.1250200000001325
rthumb 2.995817280470057 -36.20085886669446
lclavicle -9.344449492860223E-16 -8.224768811244393E-16
lhumerus -10.971369654528102 -4.454677864427329 67.68818718804815
lradius 44.80714362569326
lwrist -5.857544814696186
lhand -33.803516726555166 -13.354472091723924
lfingers 7.125020000000124
lthumb -7.076154997926658 15.741004274221982
rfemur -21.207700091980918 5.960472552632418 23.9019483240762
rtibia 27.23292532857584
rfoot -8.709233944624469 -8.898548291044227
rtoes 0.8377367714230883
lfemur 17.787675688255725 -2.1138983628988024 -29.67227848683408
ltibia 33.16946313892741
lfoot -6.489942105773266 -11.061088297465435
ltoes -7.768126121677028
82
root 0 0 0 -1.1695118263296975 -2.8443150660447354 -0.8849698371852228
lowerback 10.945255848724157 0.5605643475082317 0.4734841622484054
upperback -1.1026011338524189 0.8795963129683931 0.9179149535375193
thorax -7.2791240511326345 0.4044576965804499 0.45243440745088126
lowerneck -13.424201136799205 -1.4186318292704854 0.20369372296833027
upperneck 19.046446213181984 -1.4234421706433407 -2.3327450050607546
head 8.215603246241757 -0.8167837886935725 -0.9976665242284521
rclavicle -4.595343310957385E-16 -2.390872324371324E-16
rhumerus -11.636947317570582 -6.683157619602526 -67.18894783250603
rradius 43.079808923973296
rwrist 12.081104898281065
rhand -23.648106417614535 -5.7573838317725485
rfingers 7.125020000000133
rthumb 3.05534117238168 -35.91856302385508
lclavicle -9.442476592733853E-16 -8.192403328225831E-16
lhumerus -11.329609443272386 -4.367834423826766 67.94522687914781
lradius 44.521298014223966
lwrist -5.661266882425836
lhand -33.67991020620047 -12.69711257070613
lfingers 7.125020000000125
lthumb -6.958035904100655 16.394731668773893
rfemur -12.659532038528184 7.635090736988722 27.826121869272477
rtibia 21.175052786038265
rfoot -12.633781455120621 -7.891872815000253
rtoes 0.9982503018392259
lfemur 15.032439224848572 -1.6635543010569416 -28.021383747648517
ltibia 37.38061282242763
lfoot -3.9196063900533176 -12.120032949555412
ltoes -7.792212762714594
83
root 0 0 0 -1.1799439155885205 -2.841846184447102 -0.8961032502876536
lowerback 10.941417313072646 0.5595866349657775 0.4780209281461666
upperback -1.0896214544259533 0.8791087791777021 0.9236757528449442
thorax -7.261925673477253 0.4039444826677543 0.4570986010222595
lowerneck -13.454129763522092 -1.4312844154620388 0.18661039840745464
upperneck 19.047829500609485 -1.4420404737425154 -2.3076924533347842
head 8.22090738135272 -0.8249171327989876 -0.9883884386053344
rclavicle -4.607644732059748E-16 -2.3053418897168614E-16
rhumerus -11.7966574196899 -6.787681459391593 -67.28877666664465
rradius 42.926700159562856
rwrist 12.004814146837488
rhand -23.594254783528452 -5.492925472018379
rfingers 7.125020000000133
rthumb 3.110469833143432 -35.657120556214366
lclavicle -9.569752988491412E-16 -8.16274538770944E-16
lhumerus -11.724966739301404 -4.271718622792953 68.22864146931323
lradius 44.20549859384798
lwrist -5.444275127716127
lhand -33.543284509839175 -11.968419328316303
lfingers 7.125020000000127
lthumb -6.827622299094459 17.114291998364997
rfemur -3.2526742625740965 8.884025153300486 31.824387752422822
rtibia 18.679667685025976
rfoot -15.51479896915784 -6.3410103749937825
rtoes 2.0579263641664474
lfemur 9.237216878891266 -0.950795916971088 -24.862898872968074
ltibia 44.012050174011506
lfoot 0.24351481207248504 -13.392896102710669
ltoes -7.498352129944451
